<svg width="57" height="54" viewBox="0 0 57 54" fill="none" xmlns="http://www.w3.org/2000/svg">
<path d="M49.875 22.1562H42.3047V19.2997C46.3303 18.6436 49.4297 15.1093 49.4297 10.8281C49.4297 6.07938 45.6356 2.21875 40.9688 2.21875C36.3019 2.21875 32.5078 6.07938 32.5078 10.8281C32.5078 15.1093 35.6072 18.6436 39.6328 19.2997V22.1562H24.4922V19.4375H26.7188C27.0731 19.4375 27.4129 19.2943 27.6634 19.0393C27.9139 18.7844 28.0547 18.4387 28.0547 18.0781V5.39062C28.0547 2.64287 25.8566 0.40625 23.1562 0.40625H8.90625C6.20587 0.40625 4.00781 2.64287 4.00781 5.39062V18.0781C4.00781 18.8285 4.60631 19.4375 5.34375 19.4375H7.57031V22.1562H7.125C3.31669 22.1562 0.445312 27.4161 0.445312 34.3906C0.445312 36.8339 0.858562 39.1031 1.54969 41.0933C0.86925 42.3366 0.445312 43.7431 0.445312 45.2656C0.448141 47.5481 1.34047 49.7362 2.92659 51.3502C4.51271 52.9641 6.66314 53.8721 8.90625 53.875C13.1136 53.875 16.587 50.7212 17.2318 46.625H43.1953V52.5156C43.1953 52.8762 43.3361 53.2219 43.5866 53.4768C43.8371 53.7318 44.1769 53.875 44.5312 53.875C44.8856 53.875 45.2254 53.7318 45.4759 53.4768C45.7264 53.2219 45.8672 52.8762 45.8672 52.5156V46.625H49.875C53.6833 46.625 56.5547 41.3651 56.5547 34.3906C56.5547 27.4161 53.6833 22.1562 49.875 22.1562ZM35.1797 10.8281C35.1797 7.58012 37.7767 4.9375 40.9688 4.9375C44.1608 4.9375 46.7578 7.58012 46.7578 10.8281C46.7578 14.0761 44.1608 16.7188 40.9688 16.7188C37.7767 16.7188 35.1797 14.0761 35.1797 10.8281ZM6.67969 14H16.0312C16.3856 14 16.7254 13.8568 16.9759 13.6018C17.2264 13.3469 17.3672 13.0012 17.3672 12.6406C17.3672 12.2801 17.2264 11.9343 16.9759 11.6794C16.7254 11.4245 16.3856 11.2812 16.0312 11.2812H6.67969V8.5625H16.0312C16.3856 8.5625 16.7254 8.41928 16.9759 8.16435C17.2264 7.90942 17.3672 7.56365 17.3672 7.20312C17.3672 6.8426 17.2264 6.49683 16.9759 6.2419C16.7254 5.98697 16.3856 5.84375 16.0312 5.84375H6.67969V5.39062C6.67969 4.14 7.67719 3.125 8.90625 3.125H23.1562C24.3853 3.125 25.3828 4.14 25.3828 5.39062V16.7188H6.67969V14ZM10.2422 19.4375H21.8203V22.1562H10.2422V19.4375ZM8.90625 51.1562C5.71425 51.1562 3.11719 48.5136 3.11719 45.2656C3.11719 42.0176 5.71425 39.375 8.90625 39.375C12.0983 39.375 14.6953 42.0176 14.6953 45.2656C14.6953 48.5136 12.0983 51.1562 8.90625 51.1562ZM49.875 43.9062H17.2318C16.9162 41.8886 15.9052 40.0512 14.3798 38.7228C12.8543 37.3944 10.914 36.6618 8.90625 36.6562C6.90056 36.6562 5.07656 37.3994 3.62663 38.592C3.30036 37.2158 3.12944 35.8062 3.11719 34.3906C3.11719 28.9459 5.23331 24.875 7.125 24.875H49.875C51.7667 24.875 53.8828 28.9459 53.8828 34.3906C53.8828 39.8354 51.7667 43.9062 49.875 43.9062Z" fill="#4A4A4A"/>
</svg>
