<svg width="57" height="59" viewBox="0 0 57 59" fill="none" xmlns="http://www.w3.org/2000/svg">
<path d="M34.8297 44.6158C34.6303 44.6158 34.4353 44.5556 34.2695 44.4429C34.1036 44.3301 33.9744 44.1699 33.8981 43.9824C33.8217 43.7949 33.8018 43.5886 33.8407 43.3895C33.8796 43.1905 33.9756 43.0076 34.1166 42.8641C34.2577 42.7206 34.4374 42.6229 34.633 42.5833C34.8286 42.5437 35.0313 42.564 35.2156 42.6417C35.3999 42.7194 35.5574 42.8509 35.6682 43.0196C35.779 43.1884 35.8381 43.3868 35.8381 43.5897C35.8381 43.8618 35.7319 44.1228 35.5428 44.3153C35.3536 44.5077 35.0972 44.6158 34.8297 44.6158ZM53.7116 17.2451H48.9752C48.7078 17.2451 48.4513 17.137 48.2622 16.9445C48.0731 16.7521 47.9668 16.4911 47.9668 16.219C47.9668 15.9468 48.0731 15.6858 48.2622 15.4934C48.4513 15.301 48.7078 15.1929 48.9752 15.1929H53.7116C53.9791 15.1929 54.2356 15.301 54.4247 15.4934C54.6138 15.6858 54.72 15.9468 54.72 16.219C54.72 16.4911 54.6138 16.7521 54.4247 16.9445C54.2356 17.137 53.9791 17.2451 53.7116 17.2451ZM53.7116 25.4995H48.9752C48.7078 25.4995 48.4513 25.3914 48.2622 25.1989C48.0731 25.0065 47.9668 24.7455 47.9668 24.4734C47.9668 24.2012 48.0731 23.9402 48.2622 23.7478C48.4513 23.5554 48.7078 23.4472 48.9752 23.4472H53.7116C53.9791 23.4472 54.2356 23.5554 54.4247 23.7478C54.6138 23.9402 54.72 24.2012 54.72 24.4734C54.72 24.7455 54.6138 25.0065 54.4247 25.1989C54.2356 25.3914 53.9791 25.4995 53.7116 25.4995ZM53.7116 33.7538H48.9752C48.7078 33.7538 48.4513 33.6457 48.2622 33.4533C48.0731 33.2609 47.9668 32.9999 47.9668 32.7277C47.9668 32.4556 48.0731 32.1946 48.2622 32.0022C48.4513 31.8097 48.7078 31.7016 48.9752 31.7016H53.7116C53.9791 31.7016 54.2356 31.8097 54.4247 32.0022C54.6138 32.1946 54.72 32.4556 54.72 32.7277C54.72 32.9999 54.6138 33.2609 54.4247 33.4533C54.2356 33.6457 53.9791 33.7538 53.7116 33.7538ZM51.3431 21.3719H48.9752C48.7078 21.3719 48.4513 21.2638 48.2622 21.0714C48.0731 20.879 47.9668 20.618 47.9668 20.3458C47.9668 20.0737 48.0731 19.8127 48.2622 19.6203C48.4513 19.4278 48.7078 19.3197 48.9752 19.3197H51.3431C51.6106 19.3197 51.8671 19.4278 52.0562 19.6203C52.2453 19.8127 52.3515 20.0737 52.3515 20.3458C52.3515 20.618 52.2453 20.879 52.0562 21.0714C51.8671 21.2638 51.6106 21.3719 51.3431 21.3719ZM51.3431 29.6263H48.9752C48.7078 29.6263 48.4513 29.5182 48.2622 29.3258C48.0731 29.1334 47.9668 28.8724 47.9668 28.6002C47.9668 28.3281 48.0731 28.0671 48.2622 27.8747C48.4513 27.6822 48.7078 27.5741 48.9752 27.5741H51.3431C51.6106 27.5741 51.8671 27.6822 52.0562 27.8747C52.2453 28.0671 52.3515 28.3281 52.3515 28.6002C52.3515 28.8724 52.2453 29.1334 52.0562 29.3258C51.8671 29.5182 51.6106 29.6263 51.3431 29.6263Z" fill="#4A4A4A"/>
<path d="M42.0744 50.3812C37.3929 50.3812 33.5842 46.5058 33.5842 41.7427C33.5842 41.4862 33.5956 41.2348 33.6164 40.9892V40.9725C33.6283 40.8288 33.6454 40.6807 33.6668 40.5197C33.8473 39.2294 34.3128 37.9975 35.0282 36.9164C35.7436 35.8354 36.6904 34.9332 37.7975 34.2778V12.2524C37.7967 11.3164 38.0954 10.4056 38.6484 9.65767L38.6559 9.64741C39.1932 8.91538 39.9434 8.37413 40.8001 8.10049C41.6568 7.82686 42.5765 7.83473 43.4285 8.123C44.2806 8.41126 45.0217 8.96527 45.5469 9.70641C46.072 10.4475 46.3543 11.3381 46.3539 12.2518V34.2772C47.636 35.0384 48.6995 36.1283 49.4385 37.4382C50.1774 38.7481 50.5659 40.2323 50.5653 41.7427C50.5653 46.5058 46.756 50.3812 42.0744 50.3812ZM35.6288 41.1335V41.154C35.6118 41.3464 35.6029 41.5426 35.6029 41.7421C35.6032 42.9184 35.9131 44.0733 36.5003 45.0866C37.0875 46.0999 37.9307 46.9348 38.9422 47.5044C39.9537 48.074 41.0967 48.3576 42.2523 48.3257C43.408 48.2939 44.5342 47.9477 45.5139 47.3232C46.4937 46.6986 47.2912 45.8186 47.8236 44.7744C48.356 43.7302 48.6039 42.5599 48.5416 41.3853C48.4792 40.2106 48.1089 39.0744 47.469 38.0946C46.8292 37.1148 45.9432 36.3273 44.903 35.8137C44.733 35.7295 44.5896 35.5983 44.4893 35.4352C44.389 35.272 44.3358 35.0834 44.3358 34.8909V12.2524C44.3363 11.7688 44.1868 11.2974 43.9085 10.9053C43.6302 10.5133 43.2374 10.2206 42.7861 10.0691C42.3348 9.91756 41.8479 9.91486 41.395 10.0614C40.9421 10.2079 40.5462 10.4962 40.2637 10.8852L40.2587 10.8922C39.9712 11.2855 39.8164 11.7629 39.8175 12.2531V34.8915C39.8174 35.0826 39.765 35.2699 39.666 35.4322C39.567 35.5946 39.4254 35.7256 39.2572 35.8105L39.2288 35.8253C38.281 36.2967 37.4609 36.997 36.8401 37.865C36.2193 38.733 35.8166 39.7424 35.6672 40.8051C35.6502 40.9212 35.6376 41.0302 35.6288 41.1335Z" fill="#4A4A4A"/>
<path d="M42.0751 46.5138C41.2183 46.5139 40.3807 46.2555 39.6683 45.7712C38.9559 45.287 38.4006 44.5986 38.0726 43.7932C37.7446 42.9878 37.6588 42.1016 37.8258 41.2465C37.9929 40.3914 38.4054 39.606 39.0112 38.9895C39.617 38.373 40.3888 37.9531 41.2291 37.783C42.0694 37.6129 42.9404 37.7001 43.732 38.0337C44.5236 38.3673 45.2001 38.9323 45.6761 39.6571C46.1521 40.382 46.4062 41.2342 46.4062 42.106C46.4049 43.2745 45.9482 44.3947 45.1362 45.221C44.3243 46.0473 43.2234 46.5122 42.0751 46.5138ZM42.0751 39.7505C41.6172 39.7503 41.1696 39.8884 40.7888 40.1471C40.408 40.4059 40.1112 40.7737 39.9359 41.2041C39.7606 41.6345 39.7147 42.1082 39.8039 42.5652C39.8932 43.0221 40.1136 43.4419 40.4373 43.7714C40.761 44.1009 41.1735 44.3253 41.6226 44.4163C42.0717 44.5072 42.5372 44.4606 42.9602 44.2823C43.3832 44.104 43.7448 43.8021 43.9992 43.4148C44.2536 43.0274 44.3894 42.5719 44.3894 42.106C44.3886 41.4816 44.1445 40.8831 43.7107 40.4415C43.2768 40 42.6887 39.7515 42.0751 39.7505Z" fill="#4A4A4A"/>
<path d="M42.0744 39.7497C41.807 39.7497 41.5505 39.6416 41.3614 39.4491C41.1723 39.2567 41.066 38.9957 41.066 38.7236V16.2192C41.066 15.947 41.1723 15.686 41.3614 15.4936C41.5505 15.3012 41.807 15.193 42.0744 15.193C42.3419 15.193 42.5984 15.3012 42.7875 15.4936C42.9766 15.686 43.0828 15.947 43.0828 16.2192V38.7236C43.0828 38.9957 42.9766 39.2567 42.7875 39.4491C42.5984 39.6416 42.3419 39.7497 42.0744 39.7497ZM18.6471 45.7928C18.3796 45.7928 18.1231 45.6847 17.934 45.4923C17.7449 45.2998 17.6387 45.0388 17.6387 44.7667V32.4457C17.6387 32.1736 17.7449 31.9126 17.934 31.7202C18.1231 31.5277 18.3796 31.4196 18.6471 31.4196C18.9145 31.4196 19.171 31.5277 19.3601 31.7202C19.5493 31.9126 19.6555 32.1736 19.6555 32.4457V44.7667C19.6555 45.0388 19.5493 45.2998 19.3601 45.4923C19.171 45.6847 18.9145 45.7928 18.6471 45.7928ZM18.6471 26.8624C18.3796 26.8624 18.1231 26.7543 17.934 26.5619C17.7449 26.3695 17.6387 26.1085 17.6387 25.8363V13.5154C17.6387 13.2432 17.7449 12.9822 17.934 12.7898C18.1231 12.5974 18.3796 12.4893 18.6471 12.4893C18.9145 12.4893 19.171 12.5974 19.3601 12.7898C19.5493 12.9822 19.6555 13.2432 19.6555 13.5154V25.8363C19.6555 26.1085 19.5493 26.3695 19.3601 26.5619C19.171 26.7543 18.9145 26.8624 18.6471 26.8624Z" fill="#4A4A4A"/>
<path d="M18.6471 21.9077C18.4829 21.9075 18.3212 21.8665 18.1761 21.7883C18.031 21.7101 17.9069 21.597 17.8145 21.4588L12.8582 14.0952C12.711 13.8706 12.6566 13.5961 12.707 13.331C12.7574 13.066 12.9084 12.8318 13.1273 12.6792C13.3462 12.5267 13.6153 12.4681 13.8764 12.5161C14.1375 12.5641 14.3695 12.7149 14.5221 12.9357L18.6471 19.0654L22.7715 12.9357C22.8456 12.8227 22.9409 12.7258 23.0521 12.6507C23.1632 12.5755 23.2879 12.5235 23.419 12.4977C23.55 12.4719 23.6848 12.4728 23.8154 12.5004C23.9461 12.528 24.0701 12.5818 24.1802 12.6585C24.2903 12.7352 24.3844 12.8335 24.4569 12.9475C24.5295 13.0615 24.579 13.189 24.6028 13.3226C24.6265 13.4563 24.6239 13.5934 24.5952 13.726C24.5665 13.8586 24.5122 13.9841 24.4354 14.0952L19.479 21.4614C19.3864 21.599 19.2623 21.7115 19.1173 21.7893C18.9724 21.8671 18.811 21.9077 18.6471 21.9077ZM23.6047 45.7923C23.4404 45.7922 23.2786 45.7512 23.1334 45.673C22.9882 45.5948 22.8639 45.4816 22.7715 45.3434L18.6471 39.2143L14.5221 45.3459C14.448 45.4589 14.3526 45.5558 14.2415 45.631C14.1304 45.7062 14.0056 45.7582 13.8746 45.784C13.7436 45.8098 13.6088 45.8088 13.4781 45.7812C13.3474 45.7536 13.2235 45.6999 13.1133 45.6231C13.0032 45.5464 12.9092 45.4482 12.8366 45.3342C12.7641 45.2202 12.7145 45.0927 12.6908 44.959C12.6671 44.8254 12.6696 44.6883 12.6984 44.5556C12.7271 44.423 12.7814 44.2975 12.8582 44.1864L17.8145 36.8209C17.9071 36.6832 18.0313 36.5706 18.1763 36.4927C18.3213 36.4149 18.4828 36.3742 18.6468 36.3742C18.8107 36.3742 18.9722 36.4149 19.1173 36.4927C19.2623 36.5706 19.3865 36.6832 19.479 36.8209L24.4354 44.1864C24.5384 44.3404 24.5982 44.5201 24.6085 44.7061C24.6187 44.892 24.5791 45.0774 24.4937 45.2421C24.4083 45.4069 24.2805 45.5449 24.1238 45.6414C23.9672 45.7379 23.7878 45.7891 23.6047 45.7897V45.7923ZM8.2472 42.4908C8.0789 42.4911 7.91321 42.4485 7.76522 42.367C7.61723 42.2854 7.49165 42.1675 7.39992 42.0239C7.3082 41.8804 7.25324 41.7157 7.24007 41.545C7.22689 41.3743 7.25592 41.2029 7.3245 41.0465L10.3497 34.1569L3.19504 33.4643C3.06093 33.4547 2.93006 33.4179 2.81012 33.3561C2.69018 33.2943 2.5836 33.2087 2.49665 33.1043C2.40969 33 2.34412 32.879 2.30378 32.7485C2.26344 32.618 2.24916 32.4806 2.26177 32.3444C2.27438 32.2083 2.31362 32.076 2.3772 31.9555C2.44077 31.8349 2.52739 31.7285 2.63196 31.6425C2.73653 31.5566 2.85694 31.4927 2.98612 31.4548C3.11529 31.4169 3.25061 31.4056 3.38412 31.4217L11.933 32.249C12.0923 32.2644 12.2457 32.3183 12.3805 32.406C12.5153 32.4938 12.6277 32.6129 12.7083 32.7536C12.7889 32.8943 12.8354 33.0524 12.8441 33.215C12.8527 33.3776 12.8232 33.54 12.758 33.6887L9.16548 41.8822C9.08637 42.0629 8.9576 42.2165 8.79468 42.3245C8.63176 42.4325 8.44163 42.4902 8.2472 42.4908ZM34.004 26.8651C33.9718 26.8651 33.941 26.8651 33.9076 26.8606L25.3587 26.0327C25.1991 26.0177 25.0454 25.9642 24.9101 25.8766C24.7749 25.7891 24.6622 25.67 24.5812 25.5293C24.5003 25.3885 24.4534 25.2302 24.4446 25.0673C24.4358 24.9045 24.4653 24.7419 24.5306 24.5929L28.123 16.3995C28.2374 16.1602 28.4387 15.9755 28.6843 15.8843C28.93 15.7932 29.2009 15.8026 29.4398 15.9108C29.6787 16.019 29.867 16.2173 29.9649 16.464C30.0628 16.7108 30.0627 16.9865 29.9647 17.2332L26.947 24.1248L34.0985 24.8174C34.3567 24.842 34.5956 24.967 34.7657 25.1662C34.9357 25.3654 35.0238 25.6236 35.0116 25.8872C34.9994 26.1507 34.888 26.3994 34.7003 26.5815C34.5127 26.7636 34.2633 26.8652 34.004 26.8651Z" fill="#4A4A4A"/>
<path d="M21.4384 28.4746C21.2174 28.475 21.0024 28.4015 20.8264 28.2655C20.6505 28.1294 20.5233 27.9383 20.4645 27.7215C20.4057 27.5047 20.4185 27.2743 20.501 27.0656C20.5835 26.857 20.731 26.6817 20.9209 26.5667L31.0051 20.4466C31.2348 20.3073 31.5096 20.2666 31.7688 20.3334C32.0281 20.4002 32.2507 20.5691 32.3876 20.8029C32.5245 21.0367 32.5645 21.3162 32.4988 21.58C32.4332 21.8438 32.2672 22.0703 32.0374 22.2096L21.9533 28.3297C21.7977 28.4244 21.6197 28.4745 21.4384 28.4746ZM5.77015 37.9802C5.54914 37.9806 5.33413 37.9071 5.15817 37.7711C4.98222 37.635 4.85507 37.4439 4.79628 37.2271C4.73748 37.0103 4.75031 36.7799 4.83277 36.5712C4.91524 36.3626 5.06278 36.1873 5.25271 36.0723L15.3368 29.9522C15.5666 29.8128 15.8414 29.772 16.1007 29.8388C16.36 29.9055 16.5827 30.0744 16.7196 30.3081C16.8566 30.5419 16.8967 30.8215 16.8311 31.0854C16.7655 31.3493 16.5996 31.5758 16.3698 31.7152L6.2857 37.8353C6.12988 37.9301 5.95171 37.9802 5.77015 37.9802ZM29.0469 42.4906C28.8515 42.4911 28.6601 42.4339 28.4961 42.3259C28.3321 42.2178 28.2024 42.0636 28.1229 41.882L24.5304 33.6885C24.4652 33.5398 24.4357 33.3774 24.4443 33.2147C24.453 33.0521 24.4996 32.8938 24.5803 32.7531C24.661 32.6125 24.7734 32.4933 24.9083 32.4056C25.0432 32.3179 25.1967 32.2642 25.3561 32.2488L33.9049 31.4215C34.1676 31.4027 34.427 31.4892 34.6278 31.6625C34.8286 31.8358 34.9549 32.0821 34.9796 32.3488C35.0043 32.6156 34.9254 32.8816 34.76 33.09C34.5945 33.2983 34.3555 33.4326 34.094 33.4641L26.9424 34.1567L29.9626 41.0463C30.0311 41.2025 30.0602 41.3737 30.0471 41.5442C30.0341 41.7147 29.9793 41.8792 29.8879 42.0227C29.7965 42.1662 29.6712 42.2842 29.5236 42.3659C29.3759 42.4476 29.2105 42.4905 29.0425 42.4906H29.0469ZM3.29071 26.8649C3.0314 26.865 2.78203 26.7634 2.59439 26.5813C2.40675 26.3992 2.29526 26.1505 2.28309 25.887C2.27093 25.6234 2.35901 25.3652 2.52904 25.166C2.69908 24.9668 2.938 24.8419 3.19617 24.8172L10.3496 24.1246L7.32437 17.2356C7.2233 16.9883 7.22125 16.7106 7.31865 16.4618C7.41606 16.213 7.6052 16.0128 7.84568 15.904C8.08616 15.7951 8.35893 15.7863 8.60574 15.8793C8.85255 15.9723 9.05383 16.1599 9.16661 16.4019L12.7591 24.5953C12.8243 24.744 12.8538 24.9064 12.8452 25.069C12.8366 25.2316 12.79 25.3898 12.7094 25.5304C12.6288 25.6711 12.5164 25.7903 12.3816 25.878C12.2468 25.9658 12.0934 26.0196 11.9341 26.0351L3.38651 26.8604C3.35374 26.8636 3.32159 26.8649 3.29071 26.8649Z" fill="#4A4A4A"/>
<path d="M15.855 28.4745C15.6734 28.4743 15.4953 28.4242 15.3394 28.3296L5.25526 22.2095C5.1415 22.1405 5.04221 22.0494 4.96307 21.9413C4.88392 21.8332 4.82646 21.7104 4.79398 21.5797C4.7615 21.4491 4.75463 21.3132 4.77376 21.1798C4.79289 21.0465 4.83764 20.9182 4.90547 20.8025C4.9733 20.6867 5.06287 20.5857 5.16907 20.5051C5.27527 20.4246 5.39602 20.3661 5.52442 20.3331C5.65282 20.3 5.78637 20.2931 5.91743 20.3125C6.04849 20.332 6.1745 20.3775 6.28826 20.4465L16.3724 26.5666C16.5623 26.6816 16.7099 26.8569 16.7923 27.0655C16.8748 27.2742 16.8876 27.5046 16.8288 27.7214C16.77 27.9382 16.6429 28.1293 16.4669 28.2654C16.291 28.4014 16.076 28.4749 15.855 28.4745ZM31.5263 37.9801C31.345 37.9801 31.167 37.93 31.0114 37.8352L20.9273 31.7151C20.8135 31.6461 20.7142 31.5549 20.6351 31.4469C20.5559 31.3388 20.4985 31.216 20.466 31.0853C20.4335 30.9546 20.4266 30.8188 20.4458 30.6854C20.4649 30.552 20.5097 30.4238 20.5775 30.3081C20.6453 30.1923 20.7349 30.0913 20.8411 30.0107C20.9473 29.9302 21.068 29.8717 21.1964 29.8387C21.3248 29.8056 21.4584 29.7986 21.5894 29.8181C21.7205 29.8376 21.8465 29.8831 21.9603 29.9521L32.0444 36.0722C32.2344 36.1872 32.382 36.3626 32.4644 36.5713C32.5469 36.78 32.5596 37.0105 32.5008 37.2273C32.4419 37.4441 32.3146 37.6352 32.1386 37.7713C31.9625 37.9073 31.7474 37.9807 31.5263 37.9801Z" fill="#4A4A4A"/>
<path d="M18.647 33.4717C17.8052 33.4717 16.9823 33.2177 16.2824 32.7418C15.5825 32.2659 15.037 31.5895 14.7148 30.7982C14.3927 30.0068 14.3084 29.1361 14.4727 28.296C14.6369 27.4559 15.0422 26.6842 15.6375 26.0785C16.2327 25.4729 16.9911 25.0604 17.8167 24.8933C18.6423 24.7262 19.4981 24.8119 20.2758 25.1397C21.0535 25.4675 21.7182 26.0226 22.1859 26.7348C22.6535 27.447 22.9031 28.2843 22.9031 29.1409C22.9018 30.2891 22.453 31.3898 21.6551 32.2017C20.8572 33.0136 19.7754 33.4703 18.647 33.4717ZM18.647 26.8623C18.2041 26.8623 17.7712 26.9959 17.4029 27.2463C17.0347 27.4967 16.7476 27.8525 16.5782 28.2689C16.4087 28.6852 16.3643 29.1434 16.4507 29.5854C16.5371 30.0274 16.7504 30.4334 17.0636 30.7521C17.3768 31.0707 17.7758 31.2878 18.2101 31.3757C18.6445 31.4636 19.0948 31.4185 19.504 31.246C19.9131 31.0736 20.2629 30.7815 20.5089 30.4068C20.755 30.0321 20.8863 29.5915 20.8863 29.1409C20.8857 28.5368 20.6495 27.9576 20.2297 27.5304C19.8099 27.1032 19.2407 26.863 18.647 26.8623Z" fill="#4A4A4A"/>
</svg>
