<svg width="48" height="48" viewBox="0 0 48 48" fill="none" xmlns="http://www.w3.org/2000/svg">
<path d="M28.7108 17.369C29.0232 17.369 29.3227 17.2427 29.5436 17.018C29.7645 16.7933 29.8885 16.4885 29.8885 16.1706V9.49502C29.8873 8.77177 29.6043 8.07853 29.1015 7.56727C28.5988 7.056 27.9173 6.76842 27.2065 6.76758H9.22559C8.51508 6.76885 7.83403 7.05661 7.33162 7.56783C6.82921 8.07905 6.54641 8.77205 6.54517 9.49502V20.0485C6.54641 20.7715 6.82921 21.4645 7.33162 21.9757C7.83403 22.4869 8.51508 22.7747 9.22559 22.7759H28.7108C30.2466 22.7679 30.2544 20.3872 28.7108 20.3792H23.7284C23.5302 19.4458 23.1068 18.5773 22.4963 17.8521C21.8858 17.1268 21.1075 16.5676 20.2315 16.225L21.6824 14.1702C22.5743 12.8935 20.6727 11.5019 19.7683 12.7721L17.5621 15.9054C16.3942 16.0411 15.2975 16.5456 14.4258 17.348C13.5542 18.1504 12.9514 19.2104 12.7021 20.3792H9.22559C9.18249 20.3808 9.13953 20.3733 9.0994 20.3572C9.05927 20.3412 9.02282 20.3169 8.99233 20.2858C8.96183 20.2548 8.93795 20.2177 8.92215 20.1769C8.90636 20.1361 8.89901 20.0923 8.90054 20.0485V9.50301C8.89901 9.45916 8.90636 9.41545 8.92215 9.37461C8.93795 9.33378 8.96183 9.29669 8.99233 9.26566C9.02282 9.23463 9.05927 9.21033 9.0994 9.19426C9.13953 9.17819 9.18249 9.1707 9.22559 9.17227H27.205C27.2911 9.17309 27.3734 9.20815 27.4345 9.26996C27.4955 9.33176 27.5304 9.41541 27.5316 9.50301V16.1786C27.5337 16.4953 27.6589 16.7983 27.8798 17.0214C28.1008 17.2444 28.3996 17.3694 28.7108 17.369ZM18.2153 18.2286C19.5626 18.2478 20.7905 19.0802 21.2757 20.3792H15.158C15.3944 19.7484 15.813 19.2053 16.3588 18.8214C16.9046 18.4375 17.5518 18.2308 18.2153 18.2286Z" fill="#4A4A4A"/>
<path d="M47.1016 15.7281C46.9668 15.0012 46.6772 14.3131 46.2532 13.7122C45.8292 13.1113 45.2811 12.6121 44.6473 12.2497L38.795 8.66579C37.4744 7.86689 36.2622 9.90089 37.5796 10.719L39.8047 12.0803V17.4841C39.7999 18.5804 40.1451 19.6487 40.7881 20.5283C41.4312 21.408 42.3374 22.0515 43.3707 22.3621L44.8059 22.7999V39.0879C44.7588 42.0518 40.4124 42.0662 40.3621 39.0879V36.4547C40.3621 36.4196 40.3448 36.3908 40.3417 36.3557C40.2928 35.2201 39.8159 34.1474 39.01 33.3604C38.204 32.5733 37.1311 32.1325 36.0141 32.1295H31.3489V28.4833C32.5434 28.2389 33.6182 27.5816 34.3909 26.6229C35.1636 25.6643 35.5867 24.4632 35.5885 23.2234V6.30105C35.5869 4.88067 35.032 3.51888 34.0454 2.51408C33.0588 1.50927 31.7209 0.943389 30.3251 0.94043H6.09921C4.5635 0.953212 4.55408 3.32595 6.09921 3.33713H30.3251C31.0972 3.3384 31.8374 3.65107 32.3834 4.20664C32.9293 4.76221 33.2366 5.51536 33.2379 6.30105V23.2234C33.2366 24.009 32.9293 24.7622 32.3834 25.3178C31.8374 25.8733 31.0972 26.186 30.3251 26.1873H6.18243C5.79392 26.1968 5.40744 26.1273 5.04569 25.9829C4.68394 25.8384 4.3542 25.6218 4.07584 25.3458C3.79748 25.0699 3.57611 24.7401 3.42472 24.3759C3.27333 24.0117 3.19497 23.6204 3.19425 23.2249V7.89885C3.19582 6.3394 0.840437 6.32821 0.838867 7.89885V23.2249C0.844145 24.461 1.26956 25.6571 2.04291 26.6104C2.81627 27.5636 3.88993 28.2152 5.08169 28.4545V44.9438C4.10185 44.9886 2.2568 44.5827 2.2254 46.1422C2.2254 46.8037 2.753 47.3405 3.40309 47.3405H33.0196C34.5506 47.3358 34.5679 44.9502 33.0196 44.9438H31.3489V34.5262H36.0141C37.1133 34.5278 38.0052 35.4353 38.0067 36.5538V39.1598C38.3114 45.2043 46.965 45.1484 47.1613 39.0927V16.5174C47.1613 16.2537 47.1409 15.9885 47.1016 15.7281ZM28.9935 44.9438H7.43707V28.584H28.9935V44.9438ZM44.8091 20.3058C43.4021 20.0246 42.1334 19.0643 42.1632 17.4857V13.5231L43.4382 14.3028C44.2296 14.7342 44.8106 15.5891 44.8091 16.5174V20.3058Z" fill="#4A4A4A"/>
<path d="M18.2184 42.6142C18.8166 42.6142 19.409 42.4943 19.9617 42.2614C20.5143 42.0285 21.0165 41.687 21.4395 41.2566C21.8625 40.8262 22.198 40.3152 22.427 39.7528C22.6559 39.1905 22.7737 38.5877 22.7737 37.979C22.7737 35.7277 19.7259 32.0096 19.1135 31.2874C18.9992 31.162 18.8608 31.0619 18.7068 30.9934C18.5527 30.925 18.3865 30.8896 18.2184 30.8896C18.0504 30.8896 17.8841 30.925 17.7301 30.9934C17.5761 31.0619 17.4376 31.162 17.3234 31.2874C16.711 32.0096 13.6663 35.7277 13.6663 37.979C13.6661 38.5875 13.7836 39.1901 14.0123 39.7524C14.2409 40.3146 14.5762 40.8255 14.9989 41.256C15.4216 41.6864 15.9235 42.0279 16.4759 42.2609C17.0283 42.494 17.6204 42.614 18.2184 42.6142ZM18.2153 33.9733C19.8075 35.7565 22.042 39.7638 18.2153 40.2607C14.3886 39.7622 16.623 35.7565 18.2153 33.9733Z" fill="#4A4A4A"/>
</svg>
