<svg width="51" height="35" viewBox="0 0 51 35" fill="none" xmlns="http://www.w3.org/2000/svg">
<path d="M7.58564 15.2499H43.4142C47.3654 15.2499 50.5799 11.8578 50.5799 7.68844C50.5799 3.51904 47.3654 0.126953 43.4142 0.126953H7.58564C3.63446 0.126953 0.419922 3.51904 0.419922 7.68844C0.419922 11.8578 3.63446 15.2499 7.58564 15.2499ZM7.58564 3.9077H43.4142C45.3898 3.9077 46.9971 5.60374 46.9971 7.68844C46.9971 9.77314 45.3898 11.4692 43.4142 11.4692H7.58564C5.61005 11.4692 4.00278 9.77314 4.00278 7.68844C4.00278 5.60374 5.61023 3.9077 7.58564 3.9077ZM43.4142 19.0307H7.58564C3.63446 19.0307 0.419922 22.4227 0.419922 26.5921C0.419922 30.7615 3.63446 34.1536 7.58564 34.1536H43.4142C47.3654 34.1536 50.5799 30.7615 50.5799 26.5921C50.5799 22.4227 47.3654 19.0307 43.4142 19.0307ZM43.4142 30.3729H7.58564C5.61005 30.3729 4.00278 28.6768 4.00278 26.5921C4.00278 24.5074 5.61005 22.8114 7.58564 22.8114H43.4142C45.3898 22.8114 46.9971 24.5074 46.9971 26.5921C46.9971 28.6768 45.3898 30.3729 43.4142 30.3729Z" fill="#4A4A4A"/>
</svg>
