<svg width="59" height="59" viewBox="0 0 59 59" fill="none" xmlns="http://www.w3.org/2000/svg">
<path fill-rule="evenodd" clip-rule="evenodd" d="M7.59524 6.14062C6.98957 6.14062 6.5 6.63348 6.5 7.23586V29.1406C6.5 29.743 6.98957 30.2359 7.59524 30.2359H9.78571V45.5692H7.59524C7.30476 45.5692 7.02618 45.6846 6.82079 45.89C6.61539 46.0954 6.5 46.374 6.5 46.6644V51.0454C6.5 51.3359 6.61539 51.6144 6.82079 51.8198C7.02618 52.0252 7.30476 52.1406 7.59524 52.1406H18.5476C18.8381 52.1406 19.1167 52.0252 19.3221 51.8198C19.5275 51.6144 19.6429 51.3359 19.6429 51.0454V46.6644C19.6429 46.374 19.5275 46.0954 19.3221 45.89C19.1167 45.6846 18.8381 45.5692 18.5476 45.5692H16.3571V30.2359H42.6429V45.5692H40.4524C40.1619 45.5692 39.8833 45.6846 39.6779 45.89C39.4725 46.0954 39.3571 46.374 39.3571 46.6644V51.0454C39.3571 51.3359 39.4725 51.6144 39.6779 51.8198C39.8833 52.0252 40.1619 52.1406 40.4524 52.1406H51.4048C51.6952 52.1406 51.9738 52.0252 52.1792 51.8198C52.3846 51.6144 52.5 51.3359 52.5 51.0454V46.6644C52.5 46.374 52.3846 46.0954 52.1792 45.89C51.9738 45.6846 51.6952 45.5692 51.4048 45.5692H49.2143V30.2359H51.4048C52.0104 30.2359 52.5 29.743 52.5 29.1406V7.23586C52.5 6.63348 52.0104 6.14062 51.4048 6.14062H7.59524ZM8.69048 8.3311H13.7132L8.69048 13.3539V8.3311ZM16.8106 8.3311H25.7609L8.69048 25.4015V16.4512L16.8106 8.3311ZM28.8582 8.3311H37.8085L18.0942 28.0454H9.1439L28.8582 8.3311ZM40.9058 8.3311H49.8561L30.1418 28.0454H21.1915L40.9058 8.3311ZM50.3095 10.975V19.9253L42.1894 28.0454H33.2391L50.3095 10.975ZM50.3095 23.0226V28.0454H45.2868L50.3095 23.0226ZM11.9762 30.2359H14.1667V45.5692H11.9762V30.2359ZM44.8333 30.2359H47.0238V45.5692H44.8333V30.2359ZM8.69048 47.7597H17.4524V49.9501H8.69048V47.7597ZM41.5476 47.7597H50.3095V49.9501H41.5476V47.7597Z" fill="#4A4A4A"/>
</svg>
