<svg width="88" height="39" viewBox="0 0 88 39" fill="none" xmlns="http://www.w3.org/2000/svg">
<path d="M84.484 15.9237L79.8731 14.079L76.7754 7.88522C76.08 6.49447 74.6807 5.62907 73.1251 5.62907H63.9253C63.1739 5.62907 62.5652 6.23774 62.5652 6.98922V24.6712H57.9492C59.2005 22.3096 59.8449 18.7171 59.8449 15.1501C59.8449 9.06685 57.9764 2.90878 54.4043 2.90878H47.6035V1.54863C47.6035 0.797143 46.9949 0.188477 46.2434 0.188477C45.4919 0.188477 44.8832 0.797143 44.8832 1.54863V2.90878H36.7223V1.54863C36.7223 0.797143 36.1137 0.188477 35.3622 0.188477C34.6107 0.188477 34.002 0.797143 34.002 1.54863V2.90878H25.8411V1.54863C25.8411 0.797143 25.2325 0.188477 24.481 0.188477C23.7295 0.188477 23.1208 0.797143 23.1208 1.54863V2.90878H14.9599V1.54863C14.9599 0.797143 14.3513 0.188477 13.5998 0.188477C12.8483 0.188477 12.2396 0.797143 12.2396 1.54863V2.90878H5.4389C1.86851 2.90878 0 9.06685 0 15.1501C0 21.2334 1.86851 27.3915 5.4406 27.3915H9.52445C8.66925 28.5289 8.1609 29.9417 8.1609 31.4719C8.1609 35.2225 11.211 38.2727 14.9616 38.2727C17.1838 38.2727 19.1611 37.2015 20.4022 35.5473C21.6434 37.1998 23.6207 38.2727 25.8428 38.2727C29.1276 38.2727 31.8751 35.9332 32.5076 32.8321H68.1452C68.7777 35.9332 71.5252 38.2727 74.8099 38.2727C78.0947 38.2727 80.8422 35.9332 81.4747 32.8321H85.6911C86.4426 32.8321 87.0513 32.2234 87.0513 31.4719V19.7117C87.0513 18.0336 86.0448 16.546 84.4857 15.9237H84.484ZM14.9616 35.5524C12.7123 35.5524 10.8812 33.7213 10.8812 31.4719C10.8812 29.2226 12.7123 27.3915 14.9616 27.3915C17.211 27.3915 19.0421 29.2226 19.0421 31.4719C19.0421 33.7213 17.211 35.5524 14.9616 35.5524ZM25.8428 35.5524C23.5935 35.5524 21.7624 33.7213 21.7624 31.4719C21.7624 29.2226 23.5935 27.3915 25.8428 27.3915C28.0922 27.3915 29.9233 29.2226 29.9233 31.4719C29.9233 33.7213 28.0922 35.5524 25.8428 35.5524ZM5.4406 24.6712C4.65171 24.6712 2.7203 21.3354 2.7203 15.1501C2.7203 8.96484 4.65171 5.62907 5.4406 5.62907H54.406C55.1949 5.62907 57.1263 8.96484 57.1263 15.1501C57.1263 21.3354 55.1949 24.6712 54.406 24.6712H5.4406ZM62.5669 30.1118H32.5076C32.3061 29.1249 31.8867 28.1955 31.28 27.3915H62.5669V30.1118ZM70.7278 8.34937H73.1267C73.6453 8.34937 74.1112 8.6367 74.3441 9.10086L76.6886 13.79H70.7278V8.34937ZM74.8082 35.5524C72.5589 35.5524 70.7278 33.7213 70.7278 31.4719C70.7278 29.2226 72.5589 27.3915 74.8082 27.3915C77.0576 27.3915 78.8887 29.2226 78.8887 31.4719C78.8887 33.7213 77.0576 35.5524 74.8082 35.5524ZM84.3293 21.9509H82.9691C82.2177 21.9509 81.609 22.5595 81.609 23.311C81.609 24.0625 82.2177 24.6712 82.9691 24.6712H84.3293V30.1118H81.473C80.8405 27.0106 78.093 24.6712 74.8082 24.6712C71.5235 24.6712 68.776 27.0106 68.1435 30.1118H65.2872V8.34937H68.0075V15.1501C68.0075 15.9016 68.6162 16.5103 69.3676 16.5103H78.6269L83.4741 18.4485C83.727 18.5489 83.9438 18.723 84.0963 18.9483C84.2488 19.1737 84.33 19.4396 84.3293 19.7117V21.9509Z" fill="#4A4A4A"/>
<path d="M74.8081 32.8321C75.5593 32.8321 76.1683 32.2232 76.1683 31.472C76.1683 30.7208 75.5593 30.1118 74.8081 30.1118C74.057 30.1118 73.448 30.7208 73.448 31.472C73.448 32.2232 74.057 32.8321 74.8081 32.8321Z" fill="#4A4A4A"/>
<path d="M25.8428 32.8321C26.594 32.8321 27.203 32.2232 27.203 31.472C27.203 30.7208 26.594 30.1118 25.8428 30.1118C25.0916 30.1118 24.4827 30.7208 24.4827 31.472C24.4827 32.2232 25.0916 32.8321 25.8428 32.8321Z" fill="#4A4A4A"/>
<path d="M14.9617 32.8321C15.7129 32.8321 16.3219 32.2232 16.3219 31.472C16.3219 30.7208 15.7129 30.1118 14.9617 30.1118C14.2105 30.1118 13.6016 30.7208 13.6016 31.472C13.6016 32.2232 14.2105 32.8321 14.9617 32.8321Z" fill="#4A4A4A"/>
</svg>
